REM DIRINDEX 1\2,1\3,1\4,1\5,1\6
REM DIRNAME cjc129,folder01,folder02,folder03,folder04,folder05
TITLE ""
FILE "DISC3Track26.mp3" MP3
  TRACK 01 AUDIO
    TITLE "0:"
    INDEX 01 00:00:00
  TRACK 02 AUDIO
    TITLE "2:cjc129_2764"
    INDEX 01 00:00:05
  TRACK 03 AUDIO
    TITLE "0:"
    INDEX 01 00:04:03
  TRACK 04 AUDIO
    TITLE "3:cjc129_2765"
    INDEX 01 00:05:14
  TRACK 05 AUDIO
    TITLE "0:"
    INDEX 01 00:06:31
  TRACK 06 AUDIO
    TITLE "5:cjc129_2766"
    INDEX 01 00:06:63
  TRACK 07 AUDIO
    TITLE "0:"
    INDEX 01 00:09:38
  TRACK 08 AUDIO
    TITLE "4:cjc129_2767"
    INDEX 01 00:10:29
  TRACK 09 AUDIO
    TITLE "0:"
    INDEX 01 00:11:48
  TRACK 10 AUDIO
    TITLE "6:cjc129_2768"
    INDEX 01 00:12:03
  TRACK 11 AUDIO
    TITLE "0:"
    INDEX 01 00:15:42
  TRACK 12 AUDIO
    TITLE "3:cjc129_2769"
    INDEX 01 00:17:20
  TRACK 13 AUDIO
    TITLE "0:"
    INDEX 01 00:18:52
  TRACK 14 AUDIO
    TITLE "5:cjc129_2770"
    INDEX 01 00:19:09
  TRACK 15 AUDIO
    TITLE "0:"
    INDEX 01 00:23:10
  TRACK 16 AUDIO
    TITLE "4:cjc129_2771"
    INDEX 01 00:24:02
  TRACK 17 AUDIO
    TITLE "0:"
    INDEX 01 00:25:33
  TRACK 18 AUDIO
    TITLE "6:cjc129_2772"
    INDEX 01 00:25:66
  TRACK 19 AUDIO
    TITLE "0:"
    INDEX 01 00:29:62
  TRACK 20 AUDIO
    TITLE "3:cjc129_2773"
    INDEX 01 00:31:35
  TRACK 21 AUDIO
    TITLE "0:"
    INDEX 01 00:33:05
  TRACK 22 AUDIO
    TITLE "5:cjc129_2774"
    INDEX 01 00:33:38
  TRACK 23 AUDIO
    TITLE "0:"
    INDEX 01 00:37:61
  TRACK 24 AUDIO
    TITLE "4:cjc129_2775"
    INDEX 01 00:38:51
  TRACK 25 AUDIO
    TITLE "0:"
    INDEX 01 00:40:21
  TRACK 26 AUDIO
    TITLE "6:cjc129_2776"
    INDEX 01 00:40:58
  TRACK 27 AUDIO
    TITLE "0:"
    INDEX 01 00:46:21
  TRACK 28 AUDIO
    TITLE "3:cjc129_2777"
    INDEX 01 00:47:68
  TRACK 29 AUDIO
    TITLE "0:"
    INDEX 01 00:49:29
  TRACK 30 AUDIO
    TITLE "5:cjc129_2778"
    INDEX 01 00:49:61
  TRACK 31 AUDIO
    TITLE "0:"
    INDEX 01 00:53:21
  TRACK 32 AUDIO
    TITLE "4:cjc129_2779"
    INDEX 01 00:54:11
  TRACK 33 AUDIO
    TITLE "0:"
    INDEX 01 00:55:46
  TRACK 34 AUDIO
    TITLE "6:cjc129_2780"
    INDEX 01 00:56:04
  TRACK 35 AUDIO
    TITLE "0:"
    INDEX 01 01:00:33
  TRACK 36 AUDIO
    TITLE "3:cjc129_2781"
    INDEX 01 01:02:06
  TRACK 37 AUDIO
    TITLE "0:"
    INDEX 01 01:03:33
  TRACK 38 AUDIO
    TITLE "5:cjc129_2782"
    INDEX 01 01:03:63
  TRACK 39 AUDIO
    TITLE "0:"
    INDEX 01 01:07:19
  TRACK 40 AUDIO
    TITLE "4:cjc129_2783"
    INDEX 01 01:08:11
  TRACK 41 AUDIO
    TITLE "0:"
    INDEX 01 01:09:38
  TRACK 42 AUDIO
    TITLE "6:cjc129_2784"
    INDEX 01 01:09:67
  TRACK 43 AUDIO
    TITLE "0:"
    INDEX 01 01:14:65
  TRACK 44 AUDIO
    TITLE "3:cjc129_2785"
    INDEX 01 01:16:38
  TRACK 45 AUDIO
    TITLE "0:"
    INDEX 01 01:18:09
  TRACK 46 AUDIO
    TITLE "5:cjc129_2786"
    INDEX 01 01:18:39
  TRACK 47 AUDIO
    TITLE "0:"
    INDEX 01 01:20:42
  TRACK 48 AUDIO
    TITLE "4:cjc129_2787"
    INDEX 01 01:21:31
  TRACK 49 AUDIO
    TITLE "0:"
    INDEX 01 01:23:01
  TRACK 50 AUDIO
    TITLE "6:cjc129_2788"
    INDEX 01 01:23:34
  TRACK 51 AUDIO
    TITLE "0:"
    INDEX 01 01:28:04
  TRACK 52 AUDIO
    TITLE "3:cjc129_2789"
    INDEX 01 01:29:50
  TRACK 53 AUDIO
    TITLE "0:"
    INDEX 01 01:31:04
  TRACK 54 AUDIO
    TITLE "5:cjc129_2790"
    INDEX 01 01:31:36
  TRACK 55 AUDIO
    TITLE "0:"
    INDEX 01 01:32:72
  TRACK 56 AUDIO
    TITLE "4:cjc129_2791"
    INDEX 01 01:33:62
  TRACK 57 AUDIO
    TITLE "0:"
    INDEX 01 01:35:14
  TRACK 58 AUDIO
    TITLE "6:cjc129_2792"
    INDEX 01 01:35:47
  TRACK 59 AUDIO
    TITLE "0:"
    INDEX 01 01:39:66
  TRACK 60 AUDIO
    TITLE "3:cjc129_2793"
    INDEX 01 01:41:42
  TRACK 61 AUDIO
    TITLE "0:"
    INDEX 01 01:42:73
  TRACK 62 AUDIO
    TITLE "5:cjc129_2794"
    INDEX 01 01:43:31
  TRACK 63 AUDIO
    TITLE "0:"
    INDEX 01 01:47:74
  TRACK 64 AUDIO
    TITLE "4:cjc129_2795"
    INDEX 01 01:48:65
  TRACK 65 AUDIO
    TITLE "0:"
    INDEX 01 01:50:23
  TRACK 66 AUDIO
    TITLE "6:cjc129_2796"
    INDEX 01 01:50:54
  TRACK 67 AUDIO
    TITLE "0:"
    INDEX 01 01:54:37
